<?xml version="1.0" encoding="UTF-8"?>
<svg id="Layer_1" data-name="Layer 1" xmlns="http://www.w3.org/2000/svg" viewBox="0 0 33 28">
  <defs>
    <style>
      .cls-1 {
        fill: #d2d2d2;
        fill-rule: evenodd;
      }
    </style>
  </defs>
  <path class="cls-1" d="M10.02.04c1.03-.24,1.98.52,2.13,1.56l.42,2.83c.18,1.2-.77,2.25-1.89,2.72-2.16.91-3.68,3.04-3.68,5.54v1h5c1.66,0,3,1.34,3,3v8.01c0,1.66-1.34,3-3,3H3c-1.66,0-3-1.34-3-3v-12C0,6.55,4.28,1.39,10.02.04Z"/>
  <path class="cls-1" d="M28.02.04c1.03-.24,1.98.52,2.13,1.56l.42,2.83c.18,1.2-.77,2.25-1.89,2.72-2.16.91-3.68,3.04-3.68,5.54v1h5c1.66,0,3,1.34,3,3v8.01c0,1.66-1.34,3-3,3h-9c-1.66,0-3-1.34-3-3v-12C18,6.55,22.28,1.39,28.02.04Z"/>
</svg>