<?xml version="1.0" encoding="UTF-8"?>
<svg id="Layer_1" xmlns="http://www.w3.org/2000/svg" xmlns:xlink="http://www.w3.org/1999/xlink" version="1.1" viewBox="0 0 24 24">
  <!-- Generator: Adobe Illustrator 29.7.0, SVG Export Plug-In . SVG Version: 2.1.1 Build 138)  -->
  <defs>
    <style>
      .st0 {
        fill: #fff;
        filter: url(#drop-shadow-1);
      }
    </style>
    <filter id="drop-shadow-1" x="-1" y="-1" width="26" height="26" filterUnits="userSpaceOnUse">
      <feOffset dx="0" dy="0"/>
      <feGaussianBlur result="blur" stdDeviation="1"/>
      <feFlood flood-color="#000" flood-opacity=".2"/>
      <feComposite in2="blur" operator="in"/>
      <feComposite in="SourceGraphic"/>
    </filter>
  </defs>
  <path class="st0" d="M10.7,15.7l4.9-3.1c.2-.2.4-.4.4-.6s-.1-.5-.4-.6l-4.9-3.1c-.3-.2-.5-.2-.8,0s-.4.4-.4.7v6.3c0,.3.1.5.4.7s.5,0,.8,0c0,0,0-.3,0-.3ZM12,22c-1.4,0-2.7-.3-3.9-.8s-2.3-1.2-3.2-2.1-1.6-2-2.1-3.2-.8-2.5-.8-3.9.3-2.7.8-3.9,1.2-2.3,2.1-3.2,2-1.6,3.2-2.1,2.5-.8,3.9-.8,2.7.3,3.9.8c1.2.5,2.3,1.2,3.2,2.1s1.6,2,2.1,3.2.8,2.5.8,3.9-.3,2.7-.8,3.9c-.5,1.2-1.2,2.3-2.1,3.2s-2,1.6-3.2,2.1-2.5.8-3.9.8ZM12,20c2.2,0,4.1-.8,5.7-2.3s2.3-3.4,2.3-5.7-.8-4.1-2.3-5.7-3.4-2.3-5.7-2.3-4.1.8-5.7,2.3-2.3,3.4-2.3,5.7.8,4.1,2.3,5.7,3.4,2.3,5.7,2.3Z"/>
</svg>