<?xml version="1.0" encoding="UTF-8"?>
<svg id="Layer_1" xmlns="http://www.w3.org/2000/svg" version="1.1" viewBox="0 0 33 28">
  <!-- Generator: Adobe Illustrator 29.7.0, SVG Export Plug-In . SVG Version: 2.1.1 Build 138)  -->
  <defs>
    <style>
      .st0 {
        fill: #d7000f;
        fill-rule: evenodd;
      }
    </style>
  </defs>
  <path class="st0" d="M10,0c1-.2,2,.5,2.1,1.6l.4,2.8c.2,1.2-.8,2.2-1.9,2.7-2.2.9-3.7,3-3.7,5.5v1h5c1.7,0,3,1.3,3,3v8c0,1.7-1.3,3-3,3H3c-1.7,0-3-1.3-3-3v-12C0,6.6,4.3,1.4,10,0Z"/>
  <path class="st0" d="M28,0c1-.2,2,.5,2.1,1.6l.4,2.8c.2,1.2-.8,2.2-1.9,2.7-2.2.9-3.7,3-3.7,5.5v1h5c1.7,0,3,1.3,3,3v8c0,1.7-1.3,3-3,3h-9c-1.7,0-3-1.3-3-3v-12C18,6.6,22.3,1.4,28,0Z"/>
</svg>