<?xml version="1.0" encoding="UTF-8"?>
<svg id="Layer_1" xmlns="http://www.w3.org/2000/svg" version="1.1" viewBox="0 0 33 28">
  <!-- Generator: Adobe Illustrator 29.7.0, SVG Export Plug-In . SVG Version: 2.1.1 Build 138)  -->
  <defs>
    <style>
      .st0 {
        fill: #d7000f;
        fill-rule: evenodd;
      }
    </style>
  </defs>
  <path class="st0" d="M23,27.7c-1,.2-2-.5-2.1-1.6l-.4-2.8c-.2-1.2.8-2.2,1.9-2.7,2.2-.9,3.7-3,3.7-5.5v-1h-5c-1.7,0-3-1.3-3-3V3c0-1.7,1.3-3,3-3h9c1.7,0,3,1.3,3,3v12c0,6.1-4.3,11.3-10,12.7Z"/>
  <path class="st0" d="M5,27.7c-1,.2-2-.5-2.1-1.6l-.4-2.8c-.2-1.2.8-2.2,1.9-2.7,2.2-.9,3.7-3,3.7-5.5v-1H3c-1.7,0-3-1.3-3-3V3C0,1.3,1.3,0,3,0h9c1.7,0,3,1.3,3,3v12c0,6.1-4.3,11.3-10,12.7Z"/>
</svg>