<?xml version="1.0" encoding="UTF-8"?>
<svg id="Layer_1" xmlns="http://www.w3.org/2000/svg" version="1.1" viewBox="0 0 40 40">
  <!-- Generator: Adobe Illustrator 29.6.1, SVG Export Plug-In . SVG Version: 2.1.1 Build 9)  -->
  <defs>
    <style>
      .st0 {
        fill: #7f7f7f;
      }
    </style>
  </defs>
  <path class="st0" d="M24.5,19.9L11.6,7.1c-.3-.3-.5-.8-.5-1.3,0-.5.2-.9.5-1.3.4-.4.8-.5,1.3-.5.5,0,.9.2,1.3.5l13.4,13.4c.3.3.5.6.6.9.1.3.2.7.2,1s0,.7-.2,1c-.1.3-.3.7-.6.9l-13.4,13.4c-.4.4-.8.5-1.3.5-.5,0-.9-.2-1.3-.6-.3-.4-.5-.8-.5-1.3,0-.5.2-.9.5-1.3l12.8-12.8Z"/>
</svg>