<?xml version="1.0" encoding="UTF-8"?>
<svg id="Layer_1" xmlns="http://www.w3.org/2000/svg" version="1.1" viewBox="0 0 800 800">
  <!-- Generator: Adobe Illustrator 29.8.1, SVG Export Plug-In . SVG Version: 2.1.1 Build 2)  -->
  <defs>
    <style>
      .st0 {
        fill: #aacae6;
      }
    </style>
  </defs>
  <path class="st0" d="M266.7,306.7H106.7c-8,0-13.3,5.3-13.3,13.3v53.3c0,8,5.3,13.3,13.3,13.3h160c8,0,13.3-5.3,13.3-13.3v-53.3c0-8-5.3-13.3-13.3-13.3ZM253.3,360H120v-26.7h133.3v26.7Z"/>
  <path class="st0" d="M693.3,306.7h-40v-40c0-8-5.3-13.3-13.3-13.3h-53.3c-8,0-13.3,5.3-13.3,13.3v40h-40c-8,0-13.3,5.3-13.3,13.3v53.3c0,8,5.3,13.3,13.3,13.3h40v40c0,8,5.3,13.3,13.3,13.3h53.3c8,0,13.3-5.3,13.3-13.3v-40h40c8,0,13.3-5.3,13.3-13.3v-53.3c0-8-5.3-13.3-13.3-13.3ZM680,360h-40c-8,0-13.3,5.3-13.3,13.3v40h-26.7v-40c0-8-5.3-13.3-13.3-13.3h-40v-26.7h40c8,0,13.3-5.3,13.3-13.3v-40h26.7v40c0,8,5.3,13.3,13.3,13.3h40v26.7h0Z"/>
  <path class="st0" d="M786.7,666.7h-13.3V200c0-8-5.3-13.3-13.3-13.3h-32l-22.7-45.3c-2.7-5.3-6.7-8-12-8v-66.7c0-8-5.3-13.3-13.3-13.3h-80c-8,0-13.3,5.3-13.3,13.3v66.7c-5.3,0-9.3,2.7-12,6.7l-23.3,46.7h-18v-106.7c0-14.7-12-26.7-26.7-26.7h-213.3c-14.7,0-26.7,12-26.7,26.7v106.7h-18.7l-22.7-45.3c-2.7-5.3-6.7-8-12-8v-66.7c0-8-5.3-13.3-13.3-13.3h-80c-8,0-13.3,5.3-13.3,13.3v66.7c-5.3,0-9.3,2.7-12,6.7l-23.3,46.7h-31.3c-8,0-13.3,5.3-13.3,13.3v466.7h-13.3c-8,0-13.3,5.3-13.3,13.3v53.3c0,8,5.3,13.3,13.3,13.3h773.3c8,0,13.3-5.3,13.3-13.3v-53.3c0-8-5.3-13.3-13.3-13.3l-.2-.2ZM613.3,80h53.3v53.3h-53.3v-53.3ZM594.7,160h90.7l13.3,26.7h-117.3l13.3-26.7ZM293.3,80h213.3v106.7h-26.7v-53.3c0-14.7-12-26.7-26.7-26.7h-106.7c-14.7,0-26.7,12-26.7,26.7v53.3h-26.7v-106.7h.2ZM346.7,186.7v-53.3h106.7v53.3h-106.7ZM133.3,80h53.3v53.3h-53.3v-53.3ZM114.7,160h90.7l13.3,26.7h-117.3l13.3-26.7ZM53.3,213.3h693.3v453.3H53.3V213.3ZM773.3,720H26.7v-26.7h746.7v26.7h-.1Z"/>
</svg>