<?xml version="1.0" encoding="UTF-8"?>
<svg id="Layer_1" xmlns="http://www.w3.org/2000/svg" version="1.1" viewBox="0 0 800 800">
  <!-- Generator: Adobe Illustrator 29.8.1, SVG Export Plug-In . SVG Version: 2.1.1 Build 2)  -->
  <defs>
    <style>
      .st0 {
        fill: #aacae6;
      }
    </style>
  </defs>
  <path class="st0" d="M441.4,289.7c-84.1,0-151.7,67.6-151.7,151.7s67.6,151.7,151.7,151.7,151.7-67.6,151.7-151.7-67.6-151.7-151.7-151.7h0ZM441.4,565.5c-69,0-124.1-55.2-124.1-124.1s55.2-124.1,124.1-124.1,124.1,55.2,124.1,124.1-55.2,124.1-124.1,124.1Z"/>
  <path class="st0" d="M441.4,372.4c-38.6,0-69,30.3-69,69s30.3,69,69,69,69-30.3,69-69-30.3-69-69-69ZM441.4,482.8c-23.4,0-41.4-17.9-41.4-41.4s17.9-41.4,41.4-41.4,41.4,17.9,41.4,41.4-17.9,41.4-41.4,41.4Z"/>
  <path class="st0" d="M441.4,634.5c-8.3,0-13.8,5.5-13.8,13.8s5.5,13.8,13.8,13.8,13.8-5.5,13.8-13.8-5.5-13.8-13.8-13.8Z"/>
  <path class="st0" d="M441.4,703.4c-8.3,0-13.8,5.5-13.8,13.8s5.5,13.8,13.8,13.8,13.8-5.5,13.8-13.8-5.5-13.8-13.8-13.8Z"/>
  <path class="st0" d="M441.4,248.3c8.3,0,13.8-5.5,13.8-13.8s-5.5-13.8-13.8-13.8-13.8,5.5-13.8,13.8,5.5,13.8,13.8,13.8Z"/>
  <path class="st0" d="M531,93.8l5.6-5.5c2.8-2.8,4.1-5.5,4.1-9.7s-1.4-6.9-4.1-9.7c-13.7-13.7-28.8-25.5-45-35.3-1.3-1.1-2.7-1.9-4.2-2.5-15.9-9.2-32.8-16.4-50.4-21.6-2.8-2.1-6.1-2.9-9.3-2.6-18.3-4.6-37.3-6.9-56.5-6.9-62.1,0-121.4,24.8-165.5,69L69,205.5C24.8,249.7,0,309,0,371s24.8,121.4,69,165.5c2.8,2.8,5.5,4.1,9.7,4.1s6.9-1.4,9.7-4.1l5.6-5.6c40.8,156.8,182.3,269,347.6,269s358.6-161.4,358.6-358.6-112.2-306.7-269-347.6h-.2ZM55.2,474.5l52.4-52.4c5.5-5.5,5.5-13.8,0-19.3s-13.8-5.5-19.3,0l-45.8,45.8c-4.7-11.7-8.4-23.9-10.9-36.4.9.2,1.8.3,2.9.3,2.8,0,6.9-1.4,9.7-4.1l93.8-93.8c5.5-5.5,5.5-13.8,0-19.3s-13.8-5.5-19.3,0l-90.5,90.5c-.3-4.8-.5-9.7-.5-14.7,0-55.2,22.1-107.6,60.7-146.2L224.8,88.3c38.6-38.6,91-60.7,146.2-60.7s19.9.7,29.6,2.1l-97.2,97.2c-5.5,5.5-5.5,13.8,0,19.3,2.8,2.8,5.5,4.1,9.7,4.1s6.9-1.4,9.7-4.1l109.5-109.5c9.5,2.9,18.8,6.5,27.8,10.8l-60,60c-5.5,5.5-5.5,13.8,0,19.3,2.8,2.8,5.5,4.1,9.7,4.1s6.9-1.4,9.7-4.1l65.4-65.4c7.9,5.2,15.5,10.9,22.8,17.2l-13.8,13.8L92.4,493.8c-1.1.7-2,1.6-2.7,2.7l-11.1,11.1c-9-10.4-16.8-21.5-23.5-33.1h0ZM441.4,772.4c-157.2,0-292.4-110.3-324.1-264.8L507.6,117.2c154.5,31.7,264.8,166.9,264.8,324.1s-149,331-331,331h0Z"/>
  <path class="st0" d="M717.2,427.6c-8.3,0-13.8,5.5-13.8,13.8s5.5,13.8,13.8,13.8,13.8-5.5,13.8-13.8-5.5-13.8-13.8-13.8Z"/>
  <path class="st0" d="M648.3,427.6c-8.3,0-13.8,5.5-13.8,13.8s5.5,13.8,13.8,13.8,13.8-5.5,13.8-13.8-5.5-13.8-13.8-13.8Z"/>
  <path class="st0" d="M285.5,577.9c-5.5,5.5-5.5,13.8,0,19.3s13.8,5.5,19.3,0,5.5-13.8,0-19.3-13.8-5.5-19.3,0Z"/>
  <path class="st0" d="M237.2,626.2c-5.5,5.5-5.5,13.8,0,19.3s13.8,5.5,19.3,0,5.5-13.8,0-19.3-15.2-5.5-19.3,0Z"/>
  <path class="st0" d="M645.5,256.6c5.5-5.5,5.5-13.8,0-19.3-4.1-5.5-13.8-5.5-19.3,0s-5.5,13.8,0,19.3,13.8,5.5,19.3,0Z"/>
  <path class="st0" d="M577.9,285.5c-5.5,5.5-5.5,13.8,0,19.3s13.8,5.5,19.3,0,5.5-13.8,0-19.3-13.8-5.5-19.3,0Z"/>
  <path class="st0" d="M626.2,626.2c-5.5,5.5-5.5,13.8,0,19.3s13.8,5.5,19.3,0c5.5-4.1,5.5-13.8,0-19.3s-13.8-5.5-19.3,0Z"/>
  <path class="st0" d="M577.9,577.9c-5.5,5.5-5.5,13.8,0,19.3s13.8,5.5,19.3,0,5.5-13.8,0-19.3-13.8-5.5-19.3,0Z"/>
</svg>