<?xml version="1.0" encoding="UTF-8"?>
<svg id="Layer_1" xmlns="http://www.w3.org/2000/svg" version="1.1" viewBox="0 0 800 800">
  <!-- Generator: Adobe Illustrator 29.8.1, SVG Export Plug-In . SVG Version: 2.1.1 Build 2)  -->
  <defs>
    <style>
      .st0 {
        fill: #aacae6;
      }
    </style>
  </defs>
  <path class="st0" d="M786.7,293.3h-53.3c-5.3,0-10.7,4-12,9.3l-37.3,110.7h-36l-36-60c-2.7-4-6.7-6.7-12-6.7h-53.3v-40c0-8-5.3-13.3-13.3-13.3h-93.3v-53.3h40c8,0,13.3-5.3,13.3-13.3v-80c0-8-5.3-13.3-13.3-13.3h-240c-8,0-13.3,5.3-13.3,13.3v80c0,8,5.3,13.3,13.3,13.3h40v53.3h-106.7c-4,0-6.7,1.3-9.3,4s-4,5.3-4,9.3v40h-93.3c-8,0-13.3,5.3-13.3,13.3v80h-26.7v-40c0-8-5.3-13.3-13.3-13.3s-13.3,5.3-13.3,13.3v106.7c0,8,5.3,13.3,13.3,13.3s13.3-5.3,13.3-13.3v-40h26.7v106.7c0,8,5.3,13.3,13.3,13.3h100l49.3,74.7c2.7,2.7,6.7,5.3,10.7,5.3h373.3c5.3,0,9.3-2.7,12-8l36-72h37.3l36,72c2.7,5.3,6.7,8,12,8h53.3c8,0,13.3-5.3,13.3-13.3v-346.7c0-8-5.3-13.3-13.3-13.3h-.1ZM253.3,160h213.3v53.3h-213.3v-53.3ZM306.7,240h106.7v53.3h-106.7v-53.3h0ZM80,560v-186.7h80v186.7h-80ZM590.7,640H233.3l-46.7-70.6v-249.4h333.3v40c0,8,5.3,13.3,13.3,13.3h58.7l34.7,57.8v136.9l-36,72h0ZM653.3,560v-120h26.7v120h-26.7ZM773.3,640h-32l-34.7-66.9v-146.4l36-106.7h30.7v320Z"/>
</svg>