<?xml version="1.0" encoding="UTF-8"?>
<svg id="Layer_1" xmlns="http://www.w3.org/2000/svg" version="1.1" viewBox="0 0 800 800">
  <!-- Generator: Adobe Illustrator 29.8.1, SVG Export Plug-In . SVG Version: 2.1.1 Build 2)  -->
  <defs>
    <style>
      .st0 {
        fill: #aacae6;
      }
    </style>
  </defs>
  <path class="st0" d="M786.7,440c-8,0-13.3,5.3-13.3,13.3v26.7h-40v-226.7c0-37.3-29.3-66.7-66.7-66.7H133.3c-32,0-58.7,22.7-65.3,53.3H26.7v-26.7c0-8-5.3-13.3-13.3-13.3S.1,205.2.1,213.2v133.3c0,8,5.3,13.3,13.3,13.3s13.3-5.3,13.3-13.3v-26.7h40v226.7c0,37.3,29.3,66.7,66.7,66.7h533.3c32,0,58.7-22.7,65.3-53.3h41.3v26.7c0,8,5.3,13.3,13.3,13.3s13.3-5.3,13.3-13.3v-133.3c0-8-5.3-13.3-13.3-13.3h.1ZM93.3,546.7v-240c0-8-5.3-13.3-13.3-13.3H26.7v-26.7h53.3c8,0,13.3-5.3,13.3-13.3,0-17.3,10.7-32,26.7-37.3v368c-16-5.3-26.7-20-26.7-37.3h0ZM146.7,213.3h506.7v373.3H146.7V213.3ZM720,534.7c-8,0-13.3,5.3-13.3,13.3,0,17.3-10.7,32-26.7,37.3V216c16,5.3,26.7,20,26.7,37.3v241.3c0,8,5.3,13.3,13.3,13.3h53.3v26.7h-53.3Z"/>
  <path class="st0" d="M600,253.3H213.3c0-8-5.3-13.3-13.3-13.3s-13.3,5.3-13.3,13.3v13.3c0,8,5.3,13.3,13.3,13.3h386.7c0,8,5.3,13.3,13.3,13.3s13.3-5.3,13.3-13.3v-13.3c0-8-5.3-13.3-13.3-13.3Z"/>
  <path class="st0" d="M600,520H213.3c0-8-5.3-13.3-13.3-13.3s-13.3,5.3-13.3,13.3v13.3c0,8,5.3,13.3,13.3,13.3h386.7c0,8,5.3,13.3,13.3,13.3s13.3-5.3,13.3-13.3v-13.3c0-8-5.3-13.3-13.3-13.3Z"/>
  <path class="st0" d="M600,453.3H213.3c0-8-5.3-13.3-13.3-13.3s-13.3,5.3-13.3,13.3v13.3c0,8,5.3,13.3,13.3,13.3h386.7c0,8,5.3,13.3,13.3,13.3s13.3-5.3,13.3-13.3v-13.3c0-8-5.3-13.3-13.3-13.3Z"/>
  <path class="st0" d="M600,386.7H213.3c0-8-5.3-13.3-13.3-13.3s-13.3,5.3-13.3,13.3v13.3c0,8,5.3,13.3,13.3,13.3h386.7c0,8,5.3,13.3,13.3,13.3s13.3-5.3,13.3-13.3v-13.3c0-8-5.3-13.3-13.3-13.3Z"/>
  <path class="st0" d="M600,320H213.3c0-8-5.3-13.3-13.3-13.3s-13.3,5.3-13.3,13.3v13.3c0,8,5.3,13.3,13.3,13.3h386.7c0,8,5.3,13.3,13.3,13.3s13.3-5.3,13.3-13.3v-13.3c0-8-5.3-13.3-13.3-13.3Z"/>
</svg>