<?xml version="1.0" encoding="UTF-8"?>
<svg id="Layer_1" xmlns="http://www.w3.org/2000/svg" xmlns:xlink="http://www.w3.org/1999/xlink" version="1.1" viewBox="0 0 1920 1080">
  <!-- Generator: Adobe Illustrator 29.8.1, SVG Export Plug-In . SVG Version: 2.1.1 Build 2)  -->
  <defs>
    <style>
      .st0 {
        fill: #3d4f5a;
      }

      .st1 {
        fill: url(#linear-gradient1);
      }

      .st2 {
        fill: #8fa5b0;
      }

      .st3 {
        fill: #73889e;
      }

      .st4 {
        fill: url(#linear-gradient);
      }

      .st5 {
        fill: #f8ba57;
      }

      .st6 {
        fill: #788d96;
      }

      .st7 {
        fill: #b8c5cf;
      }

      .st8 {
        fill: #a7a399;
      }

      .st9 {
        fill: #24333c;
      }

      .st10 {
        fill: #4c6069;
      }

      .st11 {
        fill: #d4e0e8;
      }

      .st12 {
        fill: #657c88;
      }

      .st13 {
        fill: #f58a1e;
      }
    </style>
    <linearGradient id="linear-gradient" x1="1451.5" y1="157.1" x2="279.4" y2="1328.7" gradientUnits="userSpaceOnUse">
      <stop offset="0" stop-color="#495a63"/>
      <stop offset=".1" stop-color="#7a909b"/>
      <stop offset=".2" stop-color="#819ba6"/>
      <stop offset="1" stop-color="#1c2d39"/>
    </linearGradient>
    <linearGradient id="linear-gradient1" x1="1246.3" y1="138.6" x2="289.5" y2="1107.7" gradientUnits="userSpaceOnUse">
      <stop offset="0" stop-color="#70868e"/>
      <stop offset=".2" stop-color="#849ea9"/>
      <stop offset=".3" stop-color="#7c95a0"/>
      <stop offset="1" stop-color="#293b48"/>
    </linearGradient>
  </defs>
  <g id="Generative_Object">
    <path class="st4" d="M2101.3,226.3v9.4c-101.8-1.5-203.3,1.4-304.9,6.3-90.1,4.3-196.2,5.1-283,28.1-18.6-2.1-81,21.4-65.7,46.1s212.7,73.2,252.5,89.9c286.7,120.3-187.5,252.7-281.4,283-282.8,91.2-572.2,162.6-857.6,245.5L25,1080H0v-200.1c124.2-25.3,248.1-51.9,372.1-78.2,265.1-56.1,532-109.7,795-175.1,75.6-18.8,157.7-38.3,231.4-62.5,36.3-11.9,156.7-51.2,150.9-100.8-5.5-46.9-169.6-92.6-207.2-118s-24.8-29.8-2.3-46.9c18.6-14.1,56.9-23.9,79.7-29.7s13.4-3.2,20.3-4.7c99.7-21.8,195.6-22.7,296.3-28.1.7,0,2.4-6.2,3.1-6.3,28.8,2.8,58-.8,86.8-1.6,91.6-2.4,183.6.8,275.2-1.6Z"/>
    <path class="st1" d="M1802.7,218.5c6.1,7.5,20.4,3.7,28.9,4.7l-5.5,4.7c-28.8.8-57.9,4.4-86.8,1.6-.7,0-2.4,6.2-3.1,6.3-100.7,5.5-196.6,6.4-296.3,28.1-2.2-9.6-17.6,3-24.2-1.6l3.9,6.3c-22.9,5.8-61.2,15.6-79.7,29.7.3-1.9-4.5-.1-4.7,0,1.7-1.5,2.5-5,6.3-5.5-1.2-3.2-39.7,15.6-29.7,39.1,8.3,19.6,126,62.3,152.4,77.4,152.9,87.4-56.9,141.8-129.8,162.6-287.6,82.2-603.9,137-898.2,197-145.3,29.6-290.6,59.3-436.2,87.6v-132.9c278.2-43,557.4-82.8,834.1-134.5,121.6-22.7,316.5-51.1,426.8-95.4,94.5-38-.6-65.8-40.7-90.7-35.7-22.2-98.9-57.3-45.3-98.5,52.5-40.3,147.3-51.6,211.1-62.5-31.1.3-65.6,7-96.2,14.1v-1.6c162.2-36.9,346.2-34.8,512.8-36Z"/>
    <path class="st9" d="M1824.6,534.3c-28.1,63.9-275.1,150.8-344.7,175.1-150.5,52.5-306.7,98.3-459.7,143.8-264.6,78.8-531.4,150-796.6,226.7h-37.5c4.7-4.6,16.3-7.6,22.7-9.4,131.1-36.1,262.4-71.1,393.2-107.9,272.2-76.5,550.7-152.3,818.5-242.3,87.6-29.5,366.4-121.7,404.2-204s2.6-10.6,4.7-16.4c.2,13.8,1,21.6-4.7,34.4Z"/>
    <path class="st11" d="M0,723.5v-6.3c197-30.7,394.4-59.3,591-92.2,89.2-14.9,178.4-30.4,267.4-46.9,66.4-12.3,133.3-23.3,199.3-37.5,49.7-10.7,179.2-34.9,217.3-59.4,24.6-15.9,14.4-22.1-2.3-36-39.8-33-195-86.4-97.7-148.5,28.9-18.4,81.1-32.9,114.9-40.7,30.6-7,65-13.8,96.2-14.1-63.8,10.9-158.6,22.2-211.1,62.5-53.6,41.2,9.6,76.3,45.3,98.5,40,24.9,135.2,52.7,40.7,90.7-110.3,44.3-305.3,72.7-426.8,95.4C557.4,640.7,278.2,680.5,0,723.5Z"/>
    <path class="st9" d="M601.9,962.7c-130.8,36.8-262.1,71.8-393.2,107.9-6.3,1.7-18,4.8-22.7,9.4h-86c29.2-9.9,59.4-16.8,89.1-25,136-37.4,272.1-74.9,408.1-112.6,3.8,5.2-3.5,1.1-3.1,5.5s6.8,10.6,7.8,14.9Z"/>
    <path class="st7" d="M189.2,1055c-29.7,8.2-59.9,15.1-89.1,25H25l536.3-145.4,12.5-.8c10.3,17-21,16.3-32.1,19.5-108,31.3-232.4,59.8-344,96.9-.6.2-13.4-1.8-8.6,4.7Z"/>
    <path class="st10" d="M591,625c-196.6,32.9-394,61.5-591,92.2v-15.6c194.7-27.1,389.2-56.2,583.2-87.6l7.8,10.9Z"/>
    <path class="st13" d="M436.2,776.7c-100.5,20.8-201.2,40.7-301.7,61-44.8,9-89.3,19.5-134.5,26.6v-7.8c145.6-28.3,290.9-57.9,436.2-87.6v7.8Z"/>
    <path class="st13" d="M373.7,793.9l-1.6,7.8c-124,26.2-247.9,52.9-372.1,78.2v-9.4c44-7.9,87.6-17.6,131.3-26.6,80.8-16.5,161.6-33.2,242.3-50Z"/>
    <path class="st10" d="M2101.3,235.7v7.8c-100.4,2.1-201.3.5-301.7,4.7-2.9-3.1-7-.3-3.1-6.3,101.5-4.8,203.1-7.7,304.9-6.3Z"/>
    <path class="st2" d="M2101.3,220.1v6.3c-91.6,2.4-183.6-.9-275.2,1.6l5.5-4.7c-8.5-1-22.8,2.8-28.9-4.7,99.5-.7,199.1,1.7,298.6,1.6Z"/>
    <path class="st9" d="M131.3,843.9c-43.7,8.9-87.4,18.7-131.3,26.6v-6.3c45.2-7,89.7-17.6,134.5-26.6l-3.1,6.3Z"/>
    <path class="st2" d="M858.3,578.1c-6.9-2.2-6.8-1.9-10.9-7.8,108.9-19.6,300.7-44.2,397.1-86,5.8-2.5,17.6-8.3,21.9-12.5,7.5-7.3,9.6-7.3,1.6-17.2l4.7-9.4c16.7,13.9,27,20.1,2.3,36-38.1,24.5-167.6,48.7-217.3,59.4-66,14.2-133,25.2-199.3,37.5Z"/>
    <path class="st6" d="M847.4,570.3c4.2,5.9,4,5.7,10.9,7.8-88.9,16.5-178.1,32-267.4,46.9l-7.8-10.9c88.2-14.2,176.3-28,264.2-43.8Z"/>
    <path class="st12" d="M1289.9,254.5v1.6c-33.8,7.8-86,22.2-114.9,40.7-97.3,62.1,57.9,115.5,97.7,148.5l-4.7,9.4c-11-13.5-68.1-39.6-86.8-53.2s-31.4-25.2-42.2-42.2l-2.3,9.4c-1.7-7.3-2.3-16.1-1.6-23.5,5.6-57.2,107.8-80,154.8-90.7Z"/>
    <path class="st0" d="M1796.4,242c-3.9,5.9.2,3.1,3.1,6.3-59.4,2.5-302.7,15.1-340.1,51.6-18.6,18.2,29.5,32.9,42.2,37.5,72.1,26.4,281.9,61,319.7,125.9,8.5,14.5,7.5,20.6,7.8,36.7-2.1,5.8-1.9,10.3-4.7,16.4-37.8,82.3-316.5,174.6-404.2,204-267.8,90-546.3,165.8-818.5,242.3-1-4.3-7.5-11.1-7.8-14.9s6.9-.2,3.1-5.5c282.7-78.4,571.8-154.3,849.7-247,85-28.4,181.1-59,259.5-101.6,36.9-20,121.2-66.6,108.7-116.5-17.3-68.5-240.6-112.4-302.5-133.7-78.8-27-86.8-50.2.8-73.5,86.8-23.1,192.9-23.9,283-28.1Z"/>
    <path class="st11" d="M1513.4,270.1c-87.5,23.3-79.5,46.4-.8,73.5,61.9,21.3,285.3,65.2,302.5,133.7,12.6,49.8-71.8,96.4-108.7,116.5-78.5,42.6-174.5,73.3-259.5,101.6-278,92.7-567.1,168.6-849.7,247-135.9,37.7-272,75.2-408.1,112.6-4.8-6.5,8-4.5,8.6-4.7,111.5-37.1,236-65.6,344-96.9,11.1-3.2,42.4-2.6,32.1-19.5l-12.5.8c285.4-82.9,574.7-154.2,857.6-245.5,93.9-30.3,568.1-162.7,281.4-283-39.8-16.7-239-68.1-252.5-89.9s47.1-48.2,65.7-46.1Z"/>
    <path class="st5" d="M1339.9,298.3c-22.5,17.1-20.4,31.5,2.3,46.9,37.5,25.4,201.6,71.2,207.2,118,5.9,49.6-114.6,88.9-150.9,100.8-73.7,24.3-155.8,43.7-231.4,62.5-263,65.4-529.9,119-795,175.1l1.6-7.8c140.3-29.3,280.6-58.4,420.6-89.1,200.1-43.9,460.7-86.4,648.1-159.5,29.5-11.5,105.7-44.6,99.3-83.6-6.3-38.4-140-84.1-174.3-100.8-26.3-12.9-71.1-31.6-32.1-62.5s5-1.9,4.7,0Z"/>
    <path class="st8" d="M1440,263.9c-6.9,1.5-13.5,3-20.3,4.7l-3.9-6.3c6.6,4.6,22-8.1,24.2,1.6Z"/>
    <path class="st5" d="M1335.2,298.3c-18,15.3-35.7,21-8.6,43.8,41.3,34.8,286.5,86.5,168.9,172-44.9,32.6-141.7,56.8-197,71.9-163.6,44.8-338.5,81.3-504.2,117.3-118.9,25.8-238.8,48.9-358,73.5v-7.8c294.3-60,610.7-114.8,898.2-197,72.8-20.8,282.6-75.2,129.8-162.6-26.5-15.1-144.1-57.8-152.4-77.4-10-23.5,28.5-42.3,29.7-39.1-3.7.5-4.5,4-6.3,5.5Z"/>
    <path class="st0" d="M794.2,703.2v1.6c-139.9,30.7-280.3,59.9-420.6,89.1-80.7,16.8-161.5,33.5-242.3,50l3.1-6.3c100.6-20.3,201.3-40.2,301.7-61,119.2-24.6,239.1-47.7,358-73.5Z"/>
    <path class="st10" d="M1268,454.6c8,9.9,5.9,9.9-1.6,17.2-29.7-28.6-119.9-61.3-129.8-103.2l2.3-9.4c10.8,17,26,30.4,42.2,42.2s75.8,39.6,86.8,53.2Z"/>
    <path class="st3" d="M1335.2,298.3c-39,30.9,5.7,49.7,32.1,62.5,34.3,16.8,168,62.4,174.3,100.8,6.4,39-69.8,72.1-99.3,83.6-187.3,73-448,115.6-648.1,159.5v-1.6c165.8-35.9,340.6-72.5,504.2-117.3,55.3-15.1,152.1-39.3,197-71.9,117.7-85.5-127.6-137.2-168.9-172-27.1-22.8-9.4-28.5,8.6-43.8Z"/>
  </g>
</svg>