<?xml version="1.0" encoding="UTF-8"?>
<svg id="Layer_1" xmlns="http://www.w3.org/2000/svg" version="1.1" viewBox="0 0 800 800">
  <!-- Generator: Adobe Illustrator 29.8.1, SVG Export Plug-In . SVG Version: 2.1.1 Build 2)  -->
  <defs>
    <style>
      .st0 {
        fill: #aacae6;
      }
    </style>
  </defs>
  <path class="st0" d="M797.7,404c-8.3-32.6-37.6-57.3-73.7-57.3h-88c-35.8,0-66.6,25-74.2,59.5-1.2,2-1.8,4.4-1.8,7.2v66.7h-26.7v-40c0-8-5.3-13.3-13.3-13.3h-45.3c-6.1-5.2-13.3-9.3-21.3-11.5v-28.5h13.3c8,0,13.3-5.3,13.3-13.3v-53.3h13.3c22.7,0,40-17.3,40-40s-5.3-13.3-13.3-13.3-13.3,5.3-13.3,13.3-5.3,13.3-13.3,13.3h-13.3v-40h13.3c22.7,0,40-17.3,40-40s-5.3-13.3-13.3-13.3-13.3,5.3-13.3,13.3-5.3,13.3-13.3,13.3h-13.3v-40h13.3c22.7,0,40-17.3,40-40s-5.3-13.3-13.3-13.3-13.3,5.3-13.3,13.3-5.3,13.3-13.3,13.3h-13.3v-40h53.3c8,0,13.3-5.3,13.3-13.3v-53.3c0-8-5.3-13.3-13.3-13.3h-26.7v-13.3c0-8-5.3-13.3-13.3-13.3s-13.3,5.3-13.3,13.3v13.3h-26.7V13.3c0-8-5.3-13.3-13.3-13.3s-13.3,5.3-13.3,13.3v26.7h-40v-13.3c0-8-5.3-13.3-13.3-13.3s-13.3,5.3-13.3,13.3v13.3h-13.3c-8,0-13.3,5.3-13.3,13.3v53.3c0,8,5.3,13.3,13.3,13.3h53.3v40h-13.3c-22.7,0-40,17.3-40,40s5.3,13.3,13.3,13.3,13.3-5.3,13.3-13.3,5.3-13.3,13.3-13.3h13.3v40h-13.3c-22.7,0-40,17.3-40,40s5.3,13.3,13.3,13.3,13.3-5.3,13.3-13.3,5.3-13.3,13.3-13.3h13.3v40h-13.3c-22.7,0-40,17.3-40,40s5.3,13.3,13.3,13.3,13.3-5.3,13.3-13.3,5.3-13.3,13.3-13.3h13.3v53.3c0,8,5.3,13.3,13.3,13.3h13.3v28.4c-22.9,6-40,26.9-40,51.6s24,53.3,53.3,53.3,9.3,0,13.3-1.3v28h-53.3c-11.8,0-22.8,3.9-31.6,10.5L18.7,426.7c-6.7-2.7-14.7,1.3-17.3,8s1.3,14.7,8,17.3l342,126.3c-1.2,2.7-2.2,5.5-2.9,8.3H13.3c-8,0-13.3,5.3-13.3,13.3s5.3,13.3,13.3,13.3h335c6,22.9,26.9,40,51.6,40h53.3v40c0,8,5.3,13.3,13.3,13.3h93.3v17.3c0,12.3,3,23.9,8.2,34.3.2.4.4.8.6,1.2s.2.4.3.6c9.8,18.5,27,32,47.4,37.3.2,0,.4,0,.6.2.9.2,1.8.4,2.8.6.4,0,.8.2,1.2.2.8.2,1.6.3,2.3.4.5,0,.9.2,1.4.2s1.5.2,2.3.3c.5,0,1,0,1.4.2.8,0,1.6,0,2.4.2h97c26.5-1.4,49.9-16.2,62.2-39.1,6.2-11,9.8-23.5,9.8-36.8v-312c0-3.2-.8-5.9-2.3-8l.3.4h0ZM360,66.7h160v26.7h-160v-26.7ZM426.7,120h26.7v40h-26.7v-40ZM426.7,186.7h26.7v40h-26.7v-40ZM426.7,253.3h26.7v40h-26.7v-40h0ZM453.3,320v40h-26.7v-40h26.7ZM773.3,666.7h-45.3l13.3-26.7h32v26.7ZM773.3,560h-45.3l-13.3-26.7h58.7v26.7h-.1ZM773.3,453.3h-32l13.3-26.7h18.7v26.7h0ZM636,373.3h88c18.3,0,34.7,10,43.2,25.3h-20.5c-5.3,0-9.3,4-12,8l-26.7,53.3c-2.7,4-2.7,9.3,0,13.3s8,6.7,12,6.7h53.3v26.7h-80c-4,0-10.7,1.3-12,5.3s-2.7,9.3,0,13.3l26.7,53.3c2.7,5.3,6.7,8,12,8h53.3v25.3h-40c-5.3,0-9.3,4-12,8l-26.7,53.3c-2.7,4-2.7,9.3,0,13.3s8,6.7,12,6.7h66.7v26.7h-80c-4,0-10.7,1.3-12,5.3s-2.7,9.3,0,13.3l17.3,34.7h-38l-22-44c-2.7-5.3-6.7-8-12-8h-40v-28h53.3c5.3,0,9.3-2.7,12-6.7l26.7-53.3c2.7-4,2.7-9.3,0-13.3s-8-6.7-12-6.7h-80v-26.7h66.7c4,0,10.7-1.3,12-5.3s2.7-9.3,0-13.3l-26.7-53.3c-2.7-5.3-6.7-8-12-8h-40v-26.7h66.7c5.3,0,9.3-2.7,12-6.7l26.7-53.3c2.7-4,2.7-9.3,0-13.3s-8-6.7-12-6.7h-87.8c8.1-15.7,24.3-26.7,43.8-26.7v.2h0ZM764.2,752.6c-4.1,5.6-9.2,10.4-15.1,13.9-.2,0-.4.2-.6.4-.4.2-.8.4-1.2.7-5.8,3.1-12.4,5.1-19.4,5.6l-13.3-26.5h53.2c-1.1,2.1-2.3,4.1-3.6,5.9h0ZM603.4,761c-3.5-3.2-6.6-6.8-9.2-10.8-.7-1.1-1.4-2.3-2-3.5h25.2l13.2,26.4c-10.3-1.1-19.7-5.4-27.1-12h-.1ZM586.7,533.3h32l13.3,26.7h-45.3v-26.7ZM586.7,640h58.7l-13.3,26.7h-45.3v-26.7h-.1ZM586.7,426.7h72l-13.3,26.7h-58.7v-26.7ZM400,626.7c-14.7,0-26.7-12-26.7-26.7s3-14,7.8-18.8c.1,0,.3-.3.4-.4,4.8-4.6,11.3-7.5,18.4-7.5h53.3v53.3h-53.3.1ZM480,680v-184c0-5.3-2.7-9.3-8-12-5.3-1.3-10.7-1.3-14.7,2.7s-9.3,6.7-17.3,6.7c-14.7,0-26.7-12-26.7-26.7s12-26.7,26.7-26.7,14.7,2.7,20,9.3c1.3,2.7,5.3,4,9.3,4h37.3v40c0,8,5.3,13.3,13.3,13.3h40v173.3h-80,.1Z"/>
</svg>