<?xml version="1.0" encoding="UTF-8"?>
<svg id="Layer_1" xmlns="http://www.w3.org/2000/svg" version="1.1" viewBox="0 0 800 800">
  <!-- Generator: Adobe Illustrator 29.8.1, SVG Export Plug-In . SVG Version: 2.1.1 Build 2)  -->
  <defs>
    <style>
      .st0 {
        fill: #aacae6;
      }
    </style>
  </defs>
  <path class="st0" d="M520,566.7h-240c-8,0-13.3,5.3-13.3,13.3v80c0,8,5.3,13.3,13.3,13.3h240c8,0,13.3-5.3,13.3-13.3v-80c0-8-5.3-13.3-13.3-13.3ZM506.7,646.7h-213.3v-53.3h213.3v53.3h0Z"/>
  <path class="st0" d="M526.7,328l-64,38.7c-22.7,13.3-46.7,25.3-69.3,36-6.7,2.7-14.7,6.7-22.7,10.7-28,14.7-42.7,45.3-36,76,5.3,24,25.3,44,49.3,49.3,5.3,1.3,10.7,1.3,16,1.3,25.3,0,48-14.7,60-37.3,2.7-6.7,6.7-14.7,10.7-22.7,12-22.7,22.7-46.7,36-69.3l38.7-64c2.7-5.3,1.3-10.7-2.7-16s-10.7-5.3-16-2.7ZM484,396c-14.7,24-26.7,48-37.3,72-2.7,8-6.7,14.7-10.7,22.7-8,17.3-26.7,25.3-45.3,21.3-14.7-2.7-26.7-14.7-29.3-29.3-4-18.7,4-37.3,21.3-45.3,6.7-4,14.7-6.7,22.7-10.7,24-12,49.3-24,72-37.3l17.3-10.7-10.7,17.3Z"/>
  <path class="st0" d="M771.4,325.3c-.2-.9-.4-1.8-.8-2.7-.3-.9-.8-1.7-1.3-2.4-20-47.8-49-91-84.9-127.4-.5-.8-1.1-1.5-1.8-2.2s-1.4-1.3-2.2-1.8c-72.3-71.4-171.5-115.6-280.5-115.6s-102.2,10.2-148,28.6c-.9.2-1.8.4-2.7.8-.9.3-1.7.8-2.4,1.3-47.8,20-91,49-127.4,84.9-.8.5-1.5,1.1-2.2,1.8s-1.3,1.4-1.8,2.2C44.2,265.2,0,364.3,0,473.3s29.3,177.3,86.7,248c2.7,4,6.7,5.3,10.7,5.3h605.3c4,0,8-1.3,10.7-5.3,57.3-70.7,86.7-157.3,86.7-248s-10.2-102.2-28.6-148h0ZM697.3,700H104c-18-23.3-33-48.2-44.8-74.4l36.8-14.9c6.7-2.7,9.3-10.7,6.7-17.3-2.7-6.7-10.7-9.3-17.3-6.7l-36.1,14.6c-13.4-36.5-20.9-75-22.3-114.6h93.1c8,0,13.3-5.3,13.3-13.3s-5.3-13.3-13.3-13.3H26.9c1.5-42,10-82.4,24.4-119.8l36.6,15.8c1.3,1.3,4,1.3,5.3,1.3,5.3,0,9.3-2.7,12-8,2.7-6.7,0-14.7-6.7-17.3l-37-16c16.7-35.7,38.9-68.3,65.5-96.8l27.5,27.5c2.7,2.7,5.3,4,9.3,4s6.7-1.3,9.3-4c5.3-5.3,5.3-13.3,0-18.7l-27.5-27.5c29.9-27.9,64.3-50.9,101.9-67.9l14.9,36.7c1.3,5.3,6.7,8,12,8s2.7,0,5.3-1.3c6.7-2.7,9.3-10.7,6.7-17.3l-14.6-36c36-13.2,74.5-21,114.6-22.4v93.1c0,8,5.3,13.3,13.3,13.3s13.3-5.3,13.3-13.3v-93.1c42,1.5,82.4,10,119.8,24.5l-15.8,36.6c-2.7,6.7,0,14.7,6.7,17.3,1.3,1.3,4,1.3,5.3,1.3,5.3,0,10.7-4,12-8l16-37c35.7,16.7,68.3,38.9,96.8,65.5l-27.5,27.5c-5.3,5.3-5.3,13.3,0,18.7,2.7,2.7,5.3,4,9.3,4s6.7-1.3,9.3-4l27.5-27.5c27.9,29.9,50.9,64.3,67.9,101.9l-36.7,14.9c-6.7,2.7-9.3,10.7-6.7,17.3,1.3,5.3,6.7,8,12,8s2.7-1.3,5.3-1.3l36-14.6c13.2,36,21,74.5,22.4,114.6h-93.1c-8,0-13.3,5.3-13.3,13.3s5.3,13.3,13.3,13.3h93.1c-1.4,41.6-9.6,82-24.1,120l-37-16c-6.7-2.7-14.7,0-17.3,6.7-2.7,6.7,0,14.7,6.7,17.3l37.5,16.2c-11.2,24.3-25.1,47.4-41.5,69.1h.4,0Z"/>
</svg>