<?xml version="1.0" encoding="UTF-8"?>
<svg id="Layer_1" xmlns="http://www.w3.org/2000/svg" version="1.1" viewBox="0 0 800 800">
  <!-- Generator: Adobe Illustrator 29.8.1, SVG Export Plug-In . SVG Version: 2.1.1 Build 2)  -->
  <defs>
    <style>
      .st0 {
        fill: #aacae6;
      }
    </style>
  </defs>
  <path class="st0" d="M790.8,183l-1.3-1.3L619.9,12c-14.7-16-40.1-16-56.1,0l-18.7,18.7c-2.7,2.7-4,5.3-4,9.3s1.3,6.7,4,9.3l9.3,9.3-17.4,17.4-9.3-9.4c-5.3-5.3-13.4-5.3-18.7,0-5.3,5.3-5.3,13.4,0,18.7l9.3,9.4-20,20-18.7-18.7c-2.7-2.7-5.3-4-9.3-4s-6.7,1.3-8,4l-227,227c-5.3,5.3-5.3,13.4,0,18.7l13.4,13.4c18.7,18.7,48.1,18.7,66.8,0l28-28c10.7.8,21.1,3,31.1,6.2l-211.4,210.2c-20-6.7-38.7-6.7-56.1-1.3l-28-26.7c-5.3-5.3-13.4-5.3-18.7,0l-56.1,56.1c-2.7,2.7-4,5.3-4,9.3s1.3,6.7,2.7,8l28,28c-14.7,42.7-2.7,90.8,29.4,122.9,33.4,33.4,81.5,44.1,124.2,29.4l28,26.7c2.7,2.7,6.7,4,9.3,4s6.7-1.3,9.3-4l56.1-54.8c2.7-2.7,4-5.3,4-9.3s-1.3-6.7-4-9.3l-28-28c6.7-18.7,5.3-36.1-1.3-56.1l210.5-211.8c3.6,10.5,6.1,21.5,7.2,32.8l-28,28c-18.7,18.7-18.7,48.1,0,66.8l13.4,13.4c2.7,2.7,5.3,4,9.3,4s8-1.3,8-4l227-227c5.3-5.3,5.3-13.4,0-18.7l-18.7-18.7,19.4-19.4,10,10c2.7,2.7,5.3,4,9.3,4s6.7-1.3,9.3-4c5.3-5.3,5.3-13.4,0-18.7l-10-10,18-18,9.3,9.3c5.3,5.3,13.4,5.3,18.7,0l18.7-18.7,1.3-1.3c12-14.7,12-38.7,0-53.4h0ZM233.9,626.4c-4,4-5.3,9.3-2.7,14.7,9.3,25.4,6.7,40.1,1.3,52.1-2.7,5.3-1.3,10.7,2.7,14.7l24,24-37.4,36.1-25.4-22.7c-2.7-2.7-6.7-4-9.3-4s-2.7,0-4,1.3c-36.1,14.7-76.1,6.7-102.8-20s-34.7-68.1-20-102.8c2.7-5.3,1.3-10.7-2.7-14.7l-24-24,37.4-37.4,24,24c4,4,9.3,5.3,14.7,2.7,12-5.3,26.7-9.3,52.1,1.3,5.3,2.7,10.7,1.3,14.7-2.7l224.9-223.6c23.4,13.4,43,33.4,56.3,57.2l-223.8,223.8h0ZM470.3,539.6l-4-4c-8-8-8-21.4,0-29.4l32.1-32.1c2.7-2.7,4-6.7,4-10.7-1.4-22-7.1-43.2-16.3-62.6-.2-1-.6-1.9-1.1-2.9-8-15.9-18.5-30.7-30.8-43.7-.9-1-1.9-2-2.8-2.9l-.8-.8c-13.9-14-30.1-25.7-47.8-34.5h-.2c-20-9.8-41.8-15.8-64.6-16.9-2.7,0-6.7,1.3-9.3,4l-32.1,32.1c-8,8-21.4,8-29.4,0l-4-4,207-207,18.7,18.7h0l171,169.6,18.7,18.7-208.3,208.3h0ZM668.6,285.1l-151.6-151.6,19.9-19.9,151.1,152.1-19.5,19.5h0ZM555.7,94.9l18.8-18.8,151.6,151.6-19.3,19.3-151.1-152.1h0ZM772.1,219l-8,8-9.3-9.3c-1.3-1.3-2.7-2.3-4.3-2.9l-166.7-166.7h0l-9.3-9.3,9.3-9.3c5.3-5.3,13.4-5.3,18.7,0l169.6,169.6c4,5.3,4,14.7,0,20h0Z"/>
  <path class="st0" d="M386.1,398l-126.9,126.9c-5.3,5.3-5.3,13.4,0,18.7,2.7,2.7,5.3,4,9.3,4s6.7-1.3,9.3-4l126.9-126.9c5.3-5.3,5.3-13.4,0-18.7-5.3-5.3-13.4-5.3-18.7,0h.1Z"/>
  <path class="st0" d="M99,610.3c-13.4,12-20,29.4-20,46.7s8,34.7,20,46.7c12,13.4,29.4,20,46.7,20s34.7-8,48.1-20,20-29.4,20-46.7-8-34.7-20-46.7c-26.7-25.4-69.4-25.4-94.8,0h0ZM173.8,685.1c-14.7,14.7-41.4,14.7-56.1,0-8-6.7-12-17.4-12-28s4-20,12-28,17.4-12,28-12,20,2.7,28,12c8,6.7,12,17.4,12,28s-4,20-12,28h0Z"/>
  <path class="st0" d="M507.7,239.1c-29.4,0-53.4,24-53.4,53.4s24,53.4,53.4,53.4,53.4-24,53.4-53.4-24-53.4-53.4-53.4h0ZM507.7,319.2c-14.7,0-26.7-12-26.7-26.7s12-26.7,26.7-26.7,26.7,12,26.7,26.7-12,26.7-26.7,26.7Z"/>
</svg>