<?xml version="1.0" encoding="UTF-8"?>
<svg id="Layer_1" xmlns="http://www.w3.org/2000/svg" version="1.1" viewBox="0 0 800 800">
  <!-- Generator: Adobe Illustrator 29.8.1, SVG Export Plug-In . SVG Version: 2.1.1 Build 2)  -->
  <defs>
    <style>
      .st0 {
        fill: #aacae6;
      }
    </style>
  </defs>
  <path class="st0" d="M733.3,641.1V158.9c37.7-6.4,66.7-39.4,66.7-78.9S764,0,720,0s-80,36-80,80,29,72.5,66.7,78.9v227.8h-186.7v-227.8c37.7-6.4,66.7-39.4,66.7-78.9S550.7,0,506.7,0s-80,36-80,80,29,72.5,66.7,78.9v227.8h-186.7v-227.8c37.7-6.4,66.7-39.4,66.7-78.9S337.3,0,293.3,0s-80,36-80,80,29,72.5,66.7,78.9v227.8H93.3v-227.8c37.7-6.4,66.7-39.4,66.7-78.9S124,0,80,0,0,36,0,80s29,72.5,66.7,78.9v241.1c0,8,5.3,13.3,13.3,13.3h200v227.8c-37.7,6.4-66.7,39.4-66.7,78.9s36,80,80,80,80-36,80-80-29-72.5-66.7-78.9v-227.8h186.7v227.8c-37.7,6.4-66.7,39.4-66.7,78.9s36,80,80,80,80-36,80-80-29-72.5-66.7-78.9v-227.8h186.7v227.8c-37.7,6.4-66.7,39.4-66.7,78.9s36,80,80,80,80-36,80-80-29-72.5-66.7-78.9h.1ZM666.7,80c0-29.3,24-53.3,53.3-53.3s53.3,24,53.3,53.3-24,53.3-53.3,53.3-53.3-24-53.3-53.3ZM453.3,80c0-29.3,24-53.3,53.3-53.3s53.3,24,53.3,53.3-24,53.3-53.3,53.3-53.3-24-53.3-53.3ZM240,80c0-29.3,24-53.3,53.3-53.3s53.3,24,53.3,53.3-24,53.3-53.3,53.3-53.3-24-53.3-53.3h0ZM26.7,80c0-29.3,24-53.3,53.3-53.3s53.3,24,53.3,53.3-24,53.3-53.3,53.3-53.3-24-53.3-53.3ZM346.7,720c0,29.3-24,53.3-53.3,53.3s-53.3-24-53.3-53.3,24-53.3,53.3-53.3,53.3,24,53.3,53.3ZM560,720c0,29.3-24,53.3-53.3,53.3s-53.3-24-53.3-53.3,24-53.3,53.3-53.3,53.3,24,53.3,53.3ZM720,773.3c-29.3,0-53.3-24-53.3-53.3s24-53.3,53.3-53.3,53.3,24,53.3,53.3-24,53.3-53.3,53.3Z"/>
</svg>