<?xml version="1.0" encoding="UTF-8"?>
<svg id="Layer_1" data-name="Layer 1" xmlns="http://www.w3.org/2000/svg" viewBox="0 0 691 639">
  <defs>
    <style>
      .cls-1 {
        stroke: #fff;
      }

      .cls-1, .cls-2, .cls-3, .cls-4 {
        fill: none;
        stroke-miterlimit: 10;
      }

      .cls-1, .cls-3 {
        stroke-width: 6px;
      }

      .cls-2 {
        stroke-width: 4.5px;
      }

      .cls-2, .cls-3 {
        stroke: #999;
      }

      .cls-5 {
        isolation: isolate;
      }

      .cls-6 {
        font-family: Arial-BoldMT, Arial;
        font-size: 10px;
        font-weight: 700;
      }

      .cls-7 {
        fill: #fff;
      }

      .cls-8 {
        fill: red;
      }

      .cls-4 {
        stroke: #000;
        stroke-width: 4px;
      }
    </style>
  </defs>
  <path class="cls-3" d="M282.39,406.11c-2.91-3.81-1.51-6.27.51-7.46,2.96-1.76,6,2.4,7.52,4.54,1.66,2.36,2.96,5.15,3.07,8.32.08,2.35-.63,5.78-3.78,8.33"/>
  <path class="cls-2" d="M239.76,473.17c.64,3.26.83,6.33-1.82,8.76-1.62,1.5-5.75,3.09-9.19.41-3.51-2.74-3.32-7.64,1.02-12.42"/>
  <path class="cls-3" d="M537.76,72.41c-2.89,1.39-4.6,1.97-9.14,4.44-4.77,2.59-25.29,15.62-26.28,15.93"/>
  <path class="cls-1" d="M374.43,348.73c-12.05,7.56-31.17,18.85-36.33,22.75-12.46,9.42-23.82,30.83-27.48,33.62-5.26,4.01-8.48,6.33-13.56,9.56-2.61,1.66-5.46,3.54-7.54,5.56-5.56,5.41-29.3,29.16-46.14,46.13-1.14,1.26-2.49,2.78-2.75,4.46-.4,2.64-.21,3.56.22,5.86.72,3.88.97,8.74,3.33,11.91,3.64,4.91,4.35,4.27,4.69,5.99.62,3.18-1.1,10.07-.32,13.08.48,1.85,2.31,3.73,2.56,5.85.2,1.61-1.04,3.75-2.74,5.89-2.48,3.11-2.6,3.91-3.73,7.32-.79,2.41-.32,10.07-1.12,11.69-.93,1.86-3.84,4.15-5.04,5.84-1.23,1.74-1.2,2.72-2.16,4.46-2.33,3.71-5,7.16-7.19,10.96-5.39,9.35-7,12.44-9.53,13.13-.93.26-6.04.2-8,.5-2.21.32-3.73,1.36-5.58,2.02-1.78.61-2.67.9-4.72,1.62-2.27.79-4.69,2.27-6.74,3.55-2.32,1.45-4.96,3.04-7.51,4.18-1.3.58-1.93.88-3.23.99-2.31.19-4.96-.72-7.2-.81-1.9-.08-3.35-.2-5.52.36-2.16.55-3.83,1.27-5.67,2.47-3.04,1.98-6.19,5.68-9.17,7.19-5.45,2.76-8.91,4.53-14.21,6.57-1.08.41-3.41.66-4.36.54-1.34-.18-2.33-.48-3.37-.95-8.84-4.01-23.78-11.72-25.71-12.9-2.07-1.26-3.45-1.54-3.73-3.15-.19-1.06-.08-2.74.63-3.86,1.04-1.67,1.18-1.75,2.02-3.46.7-1.44,1.25-3.67,2.02-5.17,3.85-7.51,3.68-9.01,7.65-14.25,5.03-6.66,11.65-11.13,15.28-16.19,4.63-6.44,7.31-11.02,12.09-16,1.19-1.24,3.73-1.05,7.02-2.83,1.97-1.07,4.93-3.51,7.77-5.8,4.25-3.42,7.14-7.24,10.16-11.42,2-2.76,5.55-7.01,12.09-13.36,1.35-1.31,2.86-1.45,3.73-.76,1.72,1.37,1.3,3.56,2.52,5.35,2.25,3.3,6.29,4.71,11.09,3.54,4.89-1.18,5.93-6.38,9-9.59,25.71-26.97,66.15-66.29,74.96-75.18.47-.47,1.97-3.56,1.59-6.01-.46-2.98-6.4-9.17-9.34-10.58-5.27-2.52-5.66,9.53-7.91,13.58-1.24,2.23-2.09,4.72-3.96,6.38-3.68,3.28-7.91,5.81-12.72,5.8-5.01-.01-6.76-3.11-12.68-4.99-4.06-1.29-11.36-2.1-13.62-1.03-1.82.86-1.53.99-2.97,1.17-1.84.23-3.54-.81-4.9-2.25-2.09-2.23-2.97-3.82-4.99-6.48-1.47-1.93-3.9-3.13-5.21-5.39-.88-1.51-.54-2.32-2.57-3.87-1.43-1.09-7.59-.99-11.73-2.42-3.19-1.11-2.91-5.36-5.04-8.64-2.09-3.22-12.84-9.59-18.97-14.74-7.28-7.65-7.59-8.41-10.52-11.69-2.93-3.28-5.47-5.82-7.82-9.08-1.62-2.25-3.15-5.58-2.7-9.44.99-8.54,5.84-15.38,5.93-25.09.07-6.66.54-9.71-.98-20.68-.62-4.43-2.13-7.45-3.78-11.6-3.81-9.56-8.11-18.99-13.13-28.24-1.88-3.47-4.61-6.16-7.73-8-3.51-2.07-7.77-3.79-11.69-5.75-1.98-.99-2.9-3.26-2.52-5.22.76-3.89,6.27-4.17,12.77-7.19,7.89-3.68,11.38-5.81,15.83-9.71,5.51-4.84,10.43-8.19,15.82-13.4,3.76-3.63,6.99-5.92,9.98-11.87,1.68-3.34,2.85-6.1,3.78-9.98,1.35-5.67.12-10.62.99-13.67,1.04-3.64,5.17-4.28,5.75-7.01.54-2.52-2.5-5.49-1.08-9.17.87-2.26,6.64-5.25,10.79-8.9,3.33-2.93,2.88-3.63,6.12-7.11,6.19-6.65,6.63-5.68,13.3-13.22,2.79-3.14,4.77-6,5.58-9.98,1.05-5.17-1.35-9.8-3.15-13.93-.58-1.35-1.62-2.16-3.32-2.79-1.44-.53-3.75.17-5.31-.45-2.7-1.08-4.31-1.9-6.83-3.87-3.11-2.42-4.44-4.59-4.59-6.47-.18-2.34,1.23-3.18,2.97-3.96,3.85-1.73,9.46-4.87,13.4-8.9,2.21-2.27,1.11-5.13,2.33-8.18.69-1.72,2.22-4.53,4.23-6.48,2.88-2.78,6.99-4.24,11.96-1.97,5.12,2.33,9.35,4.94,14.3,9.53,1.35,1.26.86,5.23,3.68,5.12,3.75-.15,1.84-2.6,5.76-4.49,6.17-2.99,14.55-3.32,20.77-1.71,2.91.72,6.3,2.44,9.26,1.98,3.84-.6,5.25-3.81,5.57-5.31.75-3.42-.11-8.42,1.8-10.88,1.96-2.51,2.93-3.86,15.2-7.82,11.64-3.76,15.83-1.61,21.85-3.96,6.87-2.68,12.36-11.31,17.71-10.97,2.82.18,5.5,1.66,6.03,4.95.94,5.92-.5,11.76-.54,17.17-.09,12.14,3.42,18.94,5.84,21.58,4.79,5.21,9.89,8.32,15.74,11.06,4.4,2.07,7.91,4.06,14.02,4.14,11.56.15,20.33.09,29.14,2.07,5.69,1.27,11.55,2.73,16.36,6.02,3.69,2.52,5.71,4.91,9.26,7.1,6.57,4.05,11.3,5.92,16.73,5.13,4.28-.63,10.34-4.61,14.92-8.45,3.87-3.24,7.42-8.18,12.41-9.26,7.47-1.62,11.14-.67,16.1-2.7,4.39-1.8,6.61-1.84,7.82-.72,3.1,2.87.82,6.11-1.35,7.73-5.03,3.78-13.55,10.64-16,11.24-5.92,1.46-4.79,6.43-3.47,7.73,3.07,3.04,7.7.85,8.3-1.37.44-1.66,1.71-2.7,4.22-4.5,2.88-2.06,5.88-3.65,11.33-5.57,2.38-.84,3.96-1.69,10.35-2.43,4.61-.54,9.3-6.54,13.03-11.88,4.8-6.88.29-8.05,1.38-12.01.9-3.3,1.78-6.71,6.02-9.62,3.68-2.53,23.03,3.97,24.46,4.85,3.42,2.12,5.08,6.17,8.27,7.65,3.69,1.7,5.2,1.73,8.27,3.14,2.16.99,8.91,10.68,8.99,13.31.14,4.33-7.33,16.17-2.87,20.05,3.93,3.43,5.09,2.46,9.53,4.68,3.05,1.52,3.05,6.48,3.24,9.89.17,3.33.09,7.73-2.61,9.17-5.4,2.88-12.7-1.53-18.79.18-3.25.91-2.16,5.13-6.21,10.25-4.7,5.95-6.92,12.58-6.92,16.28,0,5.48.54,12.49.09,17.44-.24,2.66-1.75,5.64-4.14,6.83-3.96,1.98-7.69,1.63-10.97,3.96-3.51,2.49-5.57,5.24-8.81,8.81-3.15,3.47-3.69,5.55-5.67,9.8-1.7,3.69-3.14,5.22-5.12,7.56-1.76,2.07-4.48,3.07-6.75,4.58-2.15,1.44-4.11,3.81-7.73,4.77-9.82,2.58-19.1,6.79-28.5,7.46-6.19.44-8.27-7.28-14.39-7.19-2.56.03-5,1.41-7.19,2.96-3.73,2.64-7.48,4.42-7.2,7.56.91,9.98,19.52,9.35,24.46,17.08,1.62,2.53,4.01,6.13,3.6,12.23-.22,3.33-2.91,6.09-5.4,8.09-5.79,4.68-26.07,16.19-39.38,24.19l-65.64,40.73Z"/>
  <g>
    <path d="M270.55,432.93l3.12,3.1-3.1,3.11-3.11-3.09,3.09-3.12Z"/>
    <path class="cls-7" d="M267.46,436.05l3.11,3.09-3.09,3.11-3.11-3.09,3.09-3.11Z"/>
    <path d="M264.37,439.16l3.11,3.09-3.09,3.11-3.11-3.09,3.09-3.11Z"/>
    <path class="cls-7" d="M273.64,436l3.11,3.09-3.09,3.11-3.11-3.09,3.09-3.11Z"/>
    <path class="cls-7" d="M267.45,442.22l3.12,3.1-3.1,3.11-3.11-3.09,3.09-3.12Z"/>
    <path d="M270.52,439.08l3.11,3.1-3.09,3.11-3.11-3.09,3.09-3.12Z"/>
    <path d="M276.72,439.06l3.12,3.1-3.1,3.11-3.11-3.09,3.09-3.12Z"/>
    <path class="cls-7" d="M273.63,442.18l3.11,3.09-3.09,3.11-3.11-3.09,3.09-3.11Z"/>
    <path d="M270.54,445.29l3.11,3.09-3.09,3.11-3.11-3.09,3.09-3.11Z"/>
    <path class="cls-7" d="M279.81,442.13l3.11,3.09-3.09,3.11-3.11-3.09,3.09-3.11Z"/>
    <path class="cls-7" d="M273.62,448.35l3.12,3.1-3.1,3.11-3.11-3.09,3.09-3.12Z"/>
    <path d="M276.69,445.22l3.11,3.09-3.09,3.11-3.11-3.09,3.09-3.11Z"/>
    <path d="M282.95,445.03l3.11,3.09-3.09,3.12-3.12-3.1,3.1-3.11Z"/>
    <path class="cls-7" d="M279.85,448.14l3.12,3.1-3.1,3.11-3.11-3.09,3.09-3.12Z"/>
    <path d="M276.76,451.26l3.11,3.09-3.09,3.11-3.11-3.09,3.09-3.11Z"/>
    <path class="cls-8" d="M290.12,435.14l3.77,4.01-9.14,4.9,5.37-8.91Z"/>
    <path class="cls-8" d="M290.85,394.68l4.49-3.17,3.59,9.73-8.08-6.56Z"/>
    <path class="cls-8" d="M123.76,601.99l-2.93,4.65-7.04-7.61,9.97,2.96Z"/>
    <path class="cls-8" d="M287.18,49.92l-1.5-5.29,10.37-.15-8.87,5.44Z"/>
    <path class="cls-8" d="M178.32,392.76l-4,3.77-4.93-9.12,8.93,5.35Z"/>
    <path class="cls-8" d="M423.87,324.9l2.84,4.71-9.96,2.88,7.12-7.59Z"/>
    <path class="cls-4" d="M277.12,67.12l10,15.26"/>
  </g>
  <g class="cls-5">
    <text class="cls-6" transform="translate(163.9 180)"><tspan x="0" y="0"> </tspan></text>
    <text class="cls-6" transform="translate(108.24 244)"><tspan x="0" y="0"> </tspan></text>
    <text class="cls-6" transform="translate(222.8 563)"><tspan x="0" y="0"> </tspan></text>
    <text class="cls-6" transform="translate(332.11 81)"><tspan x="0" y="0"> </tspan></text>
    <text class="cls-6" transform="translate(396.58 40)"><tspan x="0" y="0"> </tspan></text>
    <text class="cls-6" transform="translate(163.68 583)"><tspan x="0" y="0"> </tspan></text>
    <text class="cls-6" transform="translate(348.24 91)"><tspan x="0" y="0"> </tspan></text>
    <text class="cls-6" transform="translate(658.78 136)"><tspan x="0" y="0"> </tspan></text>
    <text class="cls-6" transform="translate(566.69 150)"><tspan x="0" y="0"> </tspan></text>
    <text class="cls-6" transform="translate(577.24 116)"><tspan x="0" y="0"> </tspan></text>
    <text class="cls-6" transform="translate(281.68 60)"><tspan x="0" y="0"> </tspan></text>
    <text class="cls-6" transform="translate(141.88 345)"><tspan x="0" y="0"> </tspan></text>
    <text class="cls-6" transform="translate(227.01 216)"><tspan x="0" y="0"> </tspan></text>
    <text class="cls-6" transform="translate(238.91 455)"><tspan x="0" y="0"> </tspan></text>
    <text class="cls-6" transform="translate(274.12 401)"><tspan x="0" y="0"> </tspan></text>
    <text class="cls-6" transform="translate(624 69)"><tspan x="0" y="0"> </tspan></text>
    <text class="cls-6" transform="translate(555.63 61)"><tspan x="0" y="0"> </tspan></text>
    <text class="cls-6" transform="translate(202.79 411)"><tspan x="0" y="0"> </tspan></text>
    <text class="cls-6" transform="translate(186.68 92)"><tspan x="0" y="0"> </tspan></text>
    <text class="cls-6" transform="translate(431.59 84)"><tspan x="0" y="0"> </tspan></text>
    <text class="cls-6" transform="translate(451.71 245)"><tspan x="0" y="0"> </tspan></text>
    <text class="cls-6" transform="translate(202.23 130)"><tspan x="0" y="0"> </tspan></text>
    <text class="cls-6" transform="translate(101 580)"><tspan x="0" y="0"> </tspan></text>
    <text class="cls-6" transform="translate(456.45 125)"><tspan x="0" y="0"> </tspan></text>
    <text class="cls-6" transform="translate(319.01 388)"><tspan x="0" y="0"> </tspan></text>
    <text class="cls-6" transform="translate(563.57 174)"><tspan x="0" y="0"> </tspan></text>
    <text class="cls-6" transform="translate(136.68 224)"><tspan x="0" y="0"> </tspan></text>
    <text class="cls-6" transform="translate(249.34 360)"><tspan x="0" y="0"> </tspan></text>
    <text class="cls-6" transform="translate(135.03 527)"><tspan x="0" y="0"> </tspan></text>
    <text class="cls-6" transform="translate(187.12 487)"><tspan x="0" y="0"> </tspan></text>
    <text class="cls-6" transform="translate(486.92 226)"><tspan x="0" y="0"> </tspan></text>
    <text class="cls-6" transform="translate(206.12 598)"><tspan x="0" y="0"> </tspan></text>
    <text class="cls-6" transform="translate(536.66 207)"><tspan x="0" y="0"> </tspan></text>
    <text class="cls-6" transform="translate(524.15 75)"><tspan x="0" y="0"> </tspan></text>
    <text class="cls-6" transform="translate(326.26 599)"><tspan x="0" y="0"> </tspan></text>
    <text class="cls-6" transform="translate(268.72 88)"><tspan x="0" y="0"> </tspan></text>
  </g>
</svg>